<mxfile host="app.diagrams.net" agent="Mozilla/5.0 (Macintosh; Intel Mac OS X 10_15_7) AppleWebKit/537.36 (KHTML, like Gecko) Chrome/139.0.0.0 Safari/537.36" version="28.1.2">
  <diagram name="Page-1" id="xQhPkouIUlsc2YBCz2MF">
    <mxGraphModel dx="925" dy="519" grid="1" gridSize="10" guides="1" tooltips="1" connect="1" arrows="1" fold="1" page="1" pageScale="1" pageWidth="827" pageHeight="1169" math="0" shadow="0">
      <root>
        <mxCell id="0" />
        <mxCell id="1" parent="0" />
        <mxCell id="Q4QFyL5XrzgntovLYvID-12" style="edgeStyle=orthogonalEdgeStyle;rounded=0;orthogonalLoop=1;jettySize=auto;html=1;exitX=1;exitY=0.5;exitDx=0;exitDy=0;exitPerimeter=0;" edge="1" parent="1" source="Q4QFyL5XrzgntovLYvID-1">
          <mxGeometry relative="1" as="geometry">
            <mxPoint x="200" y="240" as="targetPoint" />
          </mxGeometry>
        </mxCell>
        <mxCell id="Q4QFyL5XrzgntovLYvID-1" value="PostgresDB&lt;div&gt;with clients sites&lt;/div&gt;&lt;div&gt;&lt;br&gt;&lt;/div&gt;" style="shape=cylinder3;whiteSpace=wrap;html=1;boundedLbl=1;backgroundOutline=1;size=15;" vertex="1" parent="1">
          <mxGeometry x="80" y="80" width="90" height="120" as="geometry" />
        </mxCell>
        <mxCell id="Q4QFyL5XrzgntovLYvID-13" style="edgeStyle=orthogonalEdgeStyle;rounded=0;orthogonalLoop=1;jettySize=auto;html=1;exitX=1;exitY=0;exitDx=0;exitDy=82.49999999999999;exitPerimeter=0;" edge="1" parent="1" source="Q4QFyL5XrzgntovLYvID-2">
          <mxGeometry relative="1" as="geometry">
            <mxPoint x="200" y="230" as="targetPoint" />
          </mxGeometry>
        </mxCell>
        <mxCell id="Q4QFyL5XrzgntovLYvID-2" value="PostgresDB&lt;div&gt;with clients data and services&lt;/div&gt;" style="shape=cylinder3;whiteSpace=wrap;html=1;boundedLbl=1;backgroundOutline=1;size=15;" vertex="1" parent="1">
          <mxGeometry x="80" y="240" width="90" height="120" as="geometry" />
        </mxCell>
        <mxCell id="Q4QFyL5XrzgntovLYvID-3" value="Data Warehouse:&lt;div&gt;Staging Layer&lt;/div&gt;&lt;div&gt;Business Layer&lt;/div&gt;" style="shape=cylinder3;whiteSpace=wrap;html=1;boundedLbl=1;backgroundOutline=1;size=15;" vertex="1" parent="1">
          <mxGeometry x="300" y="140" width="180" height="150" as="geometry" />
        </mxCell>
        <mxCell id="Q4QFyL5XrzgntovLYvID-5" value="" style="endArrow=none;html=1;rounded=0;" edge="1" parent="1">
          <mxGeometry width="50" height="50" relative="1" as="geometry">
            <mxPoint x="270" y="390" as="sourcePoint" />
            <mxPoint x="270" y="60" as="targetPoint" />
          </mxGeometry>
        </mxCell>
        <mxCell id="Q4QFyL5XrzgntovLYvID-6" value="&lt;font style=&quot;font-size: 18px;&quot;&gt;Sources&lt;/font&gt;" style="text;html=1;align=center;verticalAlign=middle;resizable=0;points=[];autosize=1;strokeColor=none;fillColor=none;" vertex="1" parent="1">
          <mxGeometry x="80" y="20" width="90" height="40" as="geometry" />
        </mxCell>
        <mxCell id="Q4QFyL5XrzgntovLYvID-7" value="&lt;div style=&quot;&quot;&gt;&lt;span style=&quot;font-size: 18px; background-color: transparent; color: light-dark(rgb(0, 0, 0), rgb(255, 255, 255));&quot;&gt;Storages&lt;/span&gt;&lt;/div&gt;" style="text;whiteSpace=wrap;html=1;align=center;" vertex="1" parent="1">
          <mxGeometry x="345" y="20" width="90" height="35" as="geometry" />
        </mxCell>
        <mxCell id="Q4QFyL5XrzgntovLYvID-8" value="" style="endArrow=none;html=1;rounded=0;" edge="1" parent="1">
          <mxGeometry width="50" height="50" relative="1" as="geometry">
            <mxPoint x="500" y="380" as="sourcePoint" />
            <mxPoint x="500" y="50" as="targetPoint" />
          </mxGeometry>
        </mxCell>
        <mxCell id="Q4QFyL5XrzgntovLYvID-15" value="" style="shape=flexArrow;endArrow=classic;html=1;rounded=0;" edge="1" parent="1">
          <mxGeometry width="50" height="50" relative="1" as="geometry">
            <mxPoint x="210" y="240" as="sourcePoint" />
            <mxPoint x="260" y="240" as="targetPoint" />
          </mxGeometry>
        </mxCell>
        <mxCell id="Q4QFyL5XrzgntovLYvID-16" value="ETL/ELT" style="text;html=1;align=center;verticalAlign=middle;resizable=0;points=[];autosize=1;strokeColor=none;fillColor=none;" vertex="1" parent="1">
          <mxGeometry x="200" y="188" width="70" height="30" as="geometry" />
        </mxCell>
        <mxCell id="Q4QFyL5XrzgntovLYvID-34" style="edgeStyle=orthogonalEdgeStyle;rounded=0;orthogonalLoop=1;jettySize=auto;html=1;" edge="1" parent="1" source="Q4QFyL5XrzgntovLYvID-17">
          <mxGeometry relative="1" as="geometry">
            <mxPoint x="560" y="230" as="targetPoint" />
          </mxGeometry>
        </mxCell>
        <mxCell id="Q4QFyL5XrzgntovLYvID-17" value="Excel" style="sketch=0;pointerEvents=1;shadow=0;dashed=0;html=1;strokeColor=none;fillColor=#505050;labelPosition=center;verticalLabelPosition=bottom;verticalAlign=top;outlineConnect=0;align=center;shape=mxgraph.office.services.excel_services;" vertex="1" parent="1">
          <mxGeometry x="610" y="80" width="60" height="49" as="geometry" />
        </mxCell>
        <mxCell id="Q4QFyL5XrzgntovLYvID-18" value="&lt;div style=&quot;&quot;&gt;&lt;span style=&quot;font-size: 18px; background-color: transparent; color: light-dark(rgb(0, 0, 0), rgb(255, 255, 255));&quot;&gt;BI&lt;/span&gt;&lt;/div&gt;" style="text;whiteSpace=wrap;html=1;align=center;" vertex="1" parent="1">
          <mxGeometry x="565" y="20" width="90" height="35" as="geometry" />
        </mxCell>
        <mxCell id="Q4QFyL5XrzgntovLYvID-35" style="edgeStyle=orthogonalEdgeStyle;rounded=0;orthogonalLoop=1;jettySize=auto;html=1;" edge="1" parent="1" source="Q4QFyL5XrzgntovLYvID-22">
          <mxGeometry relative="1" as="geometry">
            <mxPoint x="560" y="230" as="targetPoint" />
          </mxGeometry>
        </mxCell>
        <mxCell id="Q4QFyL5XrzgntovLYvID-22" value="SQL" style="sketch=0;pointerEvents=1;shadow=0;dashed=0;html=1;strokeColor=none;fillColor=#505050;labelPosition=center;verticalLabelPosition=bottom;verticalAlign=top;outlineConnect=0;align=center;shape=mxgraph.office.servers.monitoring_sql_reporting_services;" vertex="1" parent="1">
          <mxGeometry x="615" y="301" width="50" height="59" as="geometry" />
        </mxCell>
        <mxCell id="Q4QFyL5XrzgntovLYvID-28" style="edgeStyle=orthogonalEdgeStyle;rounded=0;orthogonalLoop=1;jettySize=auto;html=1;entryX=0.5;entryY=0;entryDx=0;entryDy=0;entryPerimeter=0;" edge="1" parent="1" source="Q4QFyL5XrzgntovLYvID-17" target="Q4QFyL5XrzgntovLYvID-2">
          <mxGeometry relative="1" as="geometry">
            <Array as="points">
              <mxPoint x="190" y="105" />
              <mxPoint x="190" y="220" />
              <mxPoint x="125" y="220" />
            </Array>
          </mxGeometry>
        </mxCell>
        <mxCell id="Q4QFyL5XrzgntovLYvID-33" style="edgeStyle=orthogonalEdgeStyle;rounded=0;orthogonalLoop=1;jettySize=auto;html=1;" edge="1" parent="1" source="Q4QFyL5XrzgntovLYvID-32">
          <mxGeometry relative="1" as="geometry">
            <mxPoint x="560" y="228" as="targetPoint" />
          </mxGeometry>
        </mxCell>
        <mxCell id="Q4QFyL5XrzgntovLYvID-32" value="Business Inteligence&lt;div&gt;&lt;br&gt;&lt;/div&gt;" style="image;html=1;image=img/lib/clip_art/finance/Pie_Chart_128x128.png" vertex="1" parent="1">
          <mxGeometry x="600" y="188" width="80" height="80" as="geometry" />
        </mxCell>
        <mxCell id="Q4QFyL5XrzgntovLYvID-36" value="" style="shape=flexArrow;endArrow=classic;html=1;rounded=0;" edge="1" parent="1">
          <mxGeometry width="50" height="50" relative="1" as="geometry">
            <mxPoint x="550" y="227.55" as="sourcePoint" />
            <mxPoint x="510" y="227.55" as="targetPoint" />
            <Array as="points">
              <mxPoint x="530" y="227.55" />
            </Array>
          </mxGeometry>
        </mxCell>
        <mxCell id="Q4QFyL5XrzgntovLYvID-38" style="edgeStyle=orthogonalEdgeStyle;rounded=0;orthogonalLoop=1;jettySize=auto;html=1;entryX=0.5;entryY=0;entryDx=0;entryDy=0;entryPerimeter=0;" edge="1" parent="1" source="Q4QFyL5XrzgntovLYvID-17" target="Q4QFyL5XrzgntovLYvID-1">
          <mxGeometry relative="1" as="geometry" />
        </mxCell>
      </root>
    </mxGraphModel>
  </diagram>
</mxfile>
